<?xml version="1.0" encoding="UTF-8" standalone="no"?>
<svg width="65px" height="65px" viewBox="0 0 65 65" version="1.1" xmlns="http://www.w3.org/2000/svg" xmlns:xlink="http://www.w3.org/1999/xlink">
    <!-- Generator: Sketch 40 (33762) - http://www.bohemiancoding.com/sketch -->
    <title>Shape</title>
    <desc>Created with Sketch.</desc>
    <defs></defs>
    <g id="DESKTOP" stroke="none" stroke-width="1" fill="none" fill-rule="evenodd">
        <g id="THE-ISSUE---HEALTH-&amp;-CLIMATE-IMACTS" transform="translate(-697.000000, -3361.000000)" fill="#9B9B9B">
            <g id="SOCIETAL-IMPACT" transform="translate(-2.000000, 3006.000000)">
                <g id="Group" transform="translate(114.000000, 298.000000)">
                    <g id="Group-6" transform="translate(415.813314, 0.000000)">
                        <g id="1473400926_plant_5" transform="translate(169.186686, 57.000000)">
                            <path d="M34.6666667,41.1666667 L34.6666667,41.1666667 L34.6666667,41.1666667 C34.7316667,37.8711667 34.6666667,65 34.6666667,65 L30.3333333,65 L30.3333333,43.3333333 C30.3333333,34.4521667 23.0186667,28.1666667 15.1666667,28.1666667 L4.33333333,28.1666667 C4.33333333,36.9568333 13.7193333,43.4005 19.5,43.3333333 L26,43.3333333 L26,47.6666667 L19.7296667,47.6666667 C9.7955,47.6666667 1.13533333,39.91 0,30.3333333 L0,30.3333333 L0,23.8333333 L15.0518333,23.8333333 C25.0358333,23.8333333 33.5595,31.5033333 34.6666667,41.1666667 L34.6666667,41.1666667 L34.6666667,41.1666667 Z M30.4005,17.3333333 L30.4005,17.3333333 L30.4005,17.3333333 C30.3355,14.0335 30.3333333,25.9978333 30.3333333,25.9978333 L34.6666667,30.3333333 L34.7251667,19.5 C34.7251667,10.6188333 42.0246667,4.33333333 49.8615,4.33333333 L60.6731667,4.33333333 C60.6731667,13.1256667 51.3045,19.5671667 45.5368333,19.5 L39.0498333,19.5 L39.0498333,23.8333333 L45.3071667,23.8333333 C55.2218333,23.8333333 63.8646667,16.0788333 65,6.5 L65,6.5 L65,0 L49.9763333,0 C40.0118333,0 31.5055,7.67 30.4005,17.3333333 L30.4005,17.3333333 L30.4005,17.3333333 Z" id="Shape"></path>
                        </g>
                    </g>
                </g>
            </g>
        </g>
    </g>
</svg>