<?xml version="1.0" encoding="UTF-8" standalone="no"?>
<svg width="25px" height="59px" viewBox="0 0 25 59" version="1.1" xmlns="http://www.w3.org/2000/svg" xmlns:xlink="http://www.w3.org/1999/xlink">
    <!-- Generator: Sketch 40 (33762) - http://www.bohemiancoding.com/sketch -->
    <title>Group</title>
    <desc>Created with Sketch.</desc>
    <defs></defs>
    <g id="DESKTOP" stroke="none" stroke-width="1" fill="none" fill-rule="evenodd">
        <g id="THE-ISSUE---HEALTH-&amp;-CLIMATE-IMACTS" transform="translate(-302.000000, -3365.000000)" fill="#9B9B9B">
            <g id="SOCIETAL-IMPACT" transform="translate(-2.000000, 3006.000000)">
                <g id="Group" transform="translate(114.000000, 298.000000)">
                    <g id="Group-6" transform="translate(0.139544, 0.000000)">
                        <g id="1473400819_temperature-mid" transform="translate(189.526283, 61.015111)">
                            <g id="Group">
                                <path d="M19.8995941,37.0580763 L19.8995941,7.5773823 C19.8995941,3.62277165 16.6794902,0.406015023 12.7207644,0.406015023 C8.76243752,0.406015023 5.54193477,3.62277165 5.54193477,7.5773823 L5.54193477,37.0580763 C2.54876162,39.2919572 0.756048318,42.8023415 0.756048318,46.621493 C0.756048318,53.2123779 6.12341997,58.5737718 12.7207644,58.5737718 C19.3181089,58.5737718 24.6854806,53.2123779 24.6854806,46.621493 C24.6854806,42.8023415 22.8927673,39.2919572 19.8995941,37.0580763 L19.8995941,37.0580763 Z M12.7207644,55.3864974 C7.87505441,55.3864974 3.94663928,51.4621659 3.94663928,46.621493 C3.94663928,43.2162888 5.89210213,40.2664664 8.73252573,38.8150613 L8.73252573,7.5773823 C8.73252573,5.37696777 10.5180602,3.59328937 12.7207644,3.59328937 C14.9234687,3.59328937 16.7090031,5.37696777 16.7090031,7.5773823 L16.7090031,38.8150613 C19.5490279,40.2664664 21.4948896,43.2162888 21.4948896,46.621493 C21.4948896,51.4621659 17.5664745,55.3864974 12.7207644,55.3864974 L12.7207644,55.3864974 Z" id="Shape"></path>
                                <path d="M14.9876793,40.4979422 L14.9876793,21.4476034 L10.4542484,21.4476034 L10.4542484,40.4979422 C7.96040272,41.4190645 6.17885649,43.8095202 6.17885649,46.6210946 C6.17885649,50.2310812 9.107819,53.1558038 12.7207644,53.1558038 C16.3337099,53.1558038 19.2622736,50.2310812 19.2622736,46.621493 C19.2622736,43.8099186 17.481525,41.4194629 14.9876793,40.4979422 L14.9876793,40.4979422 Z" id="Shape"></path>
                            </g>
                        </g>
                    </g>
                </g>
            </g>
        </g>
    </g>
</svg>