<?xml version="1.0" encoding="UTF-8" standalone="no"?>
<svg width="57px" height="66px" viewBox="0 0 57 66" version="1.1" xmlns="http://www.w3.org/2000/svg" xmlns:xlink="http://www.w3.org/1999/xlink">
    <!-- Generator: Sketch 40 (33762) - http://www.bohemiancoding.com/sketch -->
    <title>g6033</title>
    <desc>Created with Sketch.</desc>
    <defs></defs>
    <g id="DESKTOP" stroke="none" stroke-width="1" fill="none" fill-rule="evenodd">
        <g id="THE-ISSUE---HEALTH-&amp;-CLIMATE-IMACTS" transform="translate(-1113.000000, -3367.000000)" fill="#9B9B9B">
            <g id="SOCIETAL-IMPACT" transform="translate(-2.000000, 3006.000000)">
                <g id="Group" transform="translate(114.000000, 298.000000)">
                    <g id="snowicemelt" transform="translate(1001.000000, 63.000000)">
                        <g id="g6033" transform="translate(0.047006, 0.127797)">
                            <path d="M30.793627,26.790434 C30.2625299,26.8107319 29.8354299,27.2354968 29.8108516,27.7678362 L29.5471802,33.5961977 L25.2844921,31.3569853 C24.7949528,31.1014722 24.1915255,31.2814473 23.9208511,31.7636979 C23.6501766,32.2459484 23.809875,32.8565485 24.2817417,33.1435483 L24.3336769,33.1755943 L24.341667,33.1796 L28.3926189,35.631117 C26.4322701,36.404667 23.1253101,37.8549592 19.6075663,40.2056798 C14.2472629,43.7876839 8.59581018,49.3703899 8.02999354,57.2421206 C7.98917533,57.8073665 8.41308115,58.2987674 8.97681367,58.3396952 C9.5405462,58.380623 10.0306314,57.9555791 10.0714496,57.3903332 C10.5716374,50.4316397 15.6463663,45.3173702 20.7421525,41.9121279 C24.5098938,39.3943475 28.1819797,37.8738267 29.8547969,37.245433 L29.6670309,64.336298 C29.6598127,64.7055102 29.851115,65.0501052 30.1678831,65.238489 C30.4846513,65.4268728 30.8779677,65.4299539 31.1976327,65.2465555 C31.5172976,65.0631572 31.7139461,64.7216012 31.7124819,64.352321 L31.8962529,37.6820594 L54.8596375,50.7648281 L55.0114483,50.8529546 L55.023427,50.8569539 C55.5093887,51.1133436 56.1105485,50.9392201 56.3853013,50.4624925 C56.6600542,49.9857649 56.5103468,49.3765668 56.0461525,49.0824081 L56.0341738,49.0743966 L55.9822385,49.0463628 L32.8710382,35.4548642 C33.8108731,34.7515968 35.335927,33.7476545 37.625114,32.7670081 C41.5412503,31.0894055 47.3802397,29.6681717 55.1153188,30.776152 C55.4771541,30.8284274 55.8393157,30.6831636 56.0653648,30.3950864 C56.2914139,30.1070092 56.3470037,29.7198905 56.2111915,29.3795711 C56.0753793,29.0392517 55.7688011,28.7974414 55.4069554,28.7452384 C47.2853244,27.5818881 41.033127,29.0763791 36.8221147,30.8803014 C34.6140962,31.8261768 32.9828272,32.8550812 31.8962529,33.6362552 L31.8563027,27.8599684 L31.8563027,27.8078937 C31.8543223,27.5302391 31.7401473,27.2652549 31.5398711,27.0735003 C31.3395949,26.8817457 31.0703348,26.7796096 30.793627,26.790434 L30.793627,26.790434 Z" id="path5369-2-9"></path>
                            <path d="M53.2176836,23.3695263 C53.193674,23.3700147 53.169689,23.3713508 53.1457732,23.3735321 C46.9262442,23.8086246 44.624392,28.6651235 44.624392,28.6651235 C44.4540777,29.0015641 44.4817539,29.4046019 44.6964488,29.7144622 C44.9111438,30.0243226 45.2781823,30.19096 45.6520606,30.148315 C46.025939,30.1056701 46.3462723,29.8606304 46.4860721,29.5103361 C46.4860721,29.5103361 48.049634,25.7830288 53.2895939,25.4164629 C53.8310685,25.36814 54.2402473,24.9035605 54.2211103,24.3588239 C54.2019733,23.8140873 53.7612071,23.3795275 53.2176836,23.3695263 L53.2176836,23.3695263 Z" id="rect6287-6-2-2-2-1-1-3-3-1-1-6-7-6"></path>
                            <path d="M45.9946844,28.5008879 C45.3337595,28.5358012 44.9000485,28.689158 44.9000485,28.689158 C44.5560731,28.8143806 44.3048533,29.1140924 44.2410212,29.4753948 C44.1771891,29.8366973 44.3104423,30.2047 44.5905856,30.4407798 C44.8707289,30.6768596 45.2552019,30.7451505 45.5991772,30.6199279 C45.5991772,30.6199279 46.4478144,30.2907851 47.5127926,30.8442497 C48.5777708,31.3977143 50.0241195,32.9628066 50.6009444,37.6540191 C50.6374483,38.0247247 50.871551,38.3464358 51.2124878,38.4944207 C51.5534245,38.6424056 51.9475809,38.5933928 52.2421371,38.3663852 C52.5366934,38.1393776 52.6853288,37.7700735 52.6304154,37.4016571 C52.0079833,32.3395338 50.2740199,29.9666507 48.4556177,29.021635 C47.5464173,28.5491271 46.6556093,28.4659746 45.9946844,28.5008879 L45.9946844,28.5008879 Z" id="rect6287-6-2-2-2-1-1-3-3-1-1-6-2-95-5"></path>
                            <path d="M54.967503,38.4751972 C54.8409187,38.4869588 54.7176304,38.5222786 54.6039561,38.5793466 L45.0398742,43.1098462 C44.709458,43.2665533 44.4875193,43.5881048 44.4576602,43.9533754 C44.4278011,44.318646 44.5945579,44.6721424 44.8951151,44.8807058 C45.1956722,45.0892693 45.5843678,45.121214 45.914784,44.9645069 L55.4788658,40.4340074 C55.9377953,40.2304659 56.1816766,39.7231551 56.054602,39.2363872 C55.9275274,38.7496194 55.4670333,38.42718 54.967503,38.4751972 L54.967503,38.4751972 Z" id="rect6287-6-2-2-2-1-1-3-3-1-1-6-8-4-2"></path>
                            <path d="M45.3834461,43.1659266 C45.0947528,43.1646834 44.8189799,43.2858274 44.6241768,43.4994653 C44.4293737,43.7131032 44.3336842,43.9993369 44.3607205,44.2875357 L45.2276402,54.8587013 C45.2575913,55.2243687 45.479834,55.5462346 45.8106455,55.7030463 C46.1414571,55.8598579 46.5305749,55.8277898 46.8314111,55.6189225 C47.1322473,55.4100552 47.2990937,55.0561235 47.2690963,54.6904599 L46.4021766,44.1192943 C46.3644154,43.5828415 45.9197929,43.1667464 45.3834461,43.1659266 L45.3834461,43.1659266 Z" id="rect6287-6-2-2-2-1-1-3-3-1-1-6-2-6-31-8"></path>
                            <path d="M30.793627,51.6180522 C30.3385566,51.6073368 29.9311853,51.8994502 29.7942002,52.3347104 C29.6572151,52.7699706 29.8235845,53.2436226 30.2023638,53.4967474 L38.8995259,59.5334077 C39.1985984,59.7626074 39.5990564,59.8085719 39.9420489,59.6530681 C40.2850414,59.4975643 40.5151298,59.1657266 40.5410443,58.7891864 C40.5669588,58.4126461 40.3845106,58.052264 40.0660722,57.8509941 L31.3689101,51.810328 C31.2009414,51.6894021 31.0003632,51.6223632 30.793627,51.6180522 L30.793627,51.6180522 Z" id="rect6287-6-2-2-2-1-1-3-3-1-1-6-8-0-0-2-0"></path>
                            <path d="M30.5539257,51.6220579 C30.3585922,51.631445 30.1700366,51.6967825 30.0106027,51.810328 L21.3134406,57.8509941 C20.9950022,58.052264 20.812554,58.4126461 20.8384685,58.7891864 C20.864383,59.1657266 21.0944715,59.4975643 21.4374639,59.6530681 C21.7804564,59.8085719 22.1809144,59.7626074 22.4799869,59.5334077 L31.177149,53.4967474 C31.558014,53.2393345 31.7210418,52.7589234 31.5757954,52.3220144 C31.430549,51.8851054 31.0126519,51.5988558 30.5539257,51.6220579 L30.5539257,51.6220579 Z" id="rect6287-6-2-2-2-1-1-3-3-1-1-6-2-6-9-6-3-2"></path>
                            <path d="M15.9561165,43.1659266 C15.4707736,43.1863852 15.0667327,43.5463109 14.9893213,44.0271622 C14.9893213,44.0271622 14.5685385,46.4701485 14.3141626,49.2786961 C14.1869747,50.6829699 14.1016999,52.1842366 14.1343866,53.5448164 C14.1670733,54.9053961 14.2752336,56.1038335 14.7416299,57.0858965 C14.8900836,57.4304963 15.2144359,57.666242 15.5872427,57.7005047 C15.9600494,57.7347674 16.3217386,57.562072 16.5301957,57.250274 C16.7386528,56.9384759 16.7605678,56.5373983 16.5873299,56.2046322 C16.3874779,55.783816 16.2055225,54.7281601 16.1758427,53.4927416 C16.146163,52.2573232 16.2288426,50.822584 16.3516237,49.4669662 C16.5971858,46.7557307 17.0068072,44.3796679 17.0068072,44.3796679 C17.0644082,44.071937 16.9786563,43.7546803 16.7739663,43.5182256 C16.5692764,43.281771 16.2680741,43.1520244 15.9561165,43.1659266 L15.9561165,43.1659266 Z" id="rect6287-6-2-2-2-1-1-3-3-1-1-6-8-0-3-3-8"></path>
                            <path d="M11.8412442,41.8920992 C11.6236624,41.9012771 11.4031284,41.9259807 11.1780706,41.9642026 C9.37760818,42.269975 7.62864459,43.4944722 5.20551322,46.006001 C4.94633893,46.2683702 4.84785272,46.6501913 4.94766455,47.0056544 C5.04747637,47.3611176 5.33017257,47.6353296 5.68779704,47.7235743 C6.04542152,47.8118191 6.42274732,47.7004691 6.6756812,47.4320469 C8.98203801,45.0415531 10.4193858,44.1743006 11.5216425,43.9871047 C12.6238991,43.7999088 13.7135526,44.2284673 15.5086741,44.9845356 C15.8477928,45.1385886 16.2436109,45.095717 16.5420967,44.8726042 C16.8405825,44.6494915 16.9945891,44.2813791 16.9441852,43.9115171 C16.8937812,43.5416552 16.6469282,43.2284647 16.2996884,43.0938232 C14.7310267,42.4331352 13.3643166,41.8278444 11.8412442,41.8920992 L11.8412442,41.8920992 Z" id="rect6287-6-2-2-2-1-1-3-3-1-1-6-2-6-9-8-4-6"></path>
                            <path d="M29.4872549,0.128183895 C28.5589588,0.111004954 27.7355376,0.722827696 27.481754,1.61832167 L27.481754,1.62633317 L24.713204,11.8730333 C24.5694461,12.4066524 24.6465642,12.9758619 24.9270848,13.4516895 C25.2076055,13.9275172 25.667782,14.2696833 26.2033471,14.4006594 C26.7294895,14.5448186 27.2912615,14.4723276 27.763857,14.1992916 C28.2364525,13.9262555 28.5807327,13.4752863 28.7202107,12.9465734 L31.2969997,3.20059163 L31.4328304,2.69186179 L31.4288418,2.69186179 L31.4328304,2.67985096 C31.58517,2.07326464 31.453131,1.4301306 31.0742327,0.933196733 C30.6953344,0.436262862 30.1109946,0.139849785 29.4872549,0.128183895 L29.4872549,0.128183895 Z M12.5843182,2.35938482 C11.8463204,2.3344275 11.1521875,2.71020269 10.7681446,3.34258705 C10.3841016,3.97497141 10.369763,4.76580086 10.7306282,5.41176381 L10.7346232,5.41977531 L10.7825635,5.49989024 L16.0040568,14.628987 C16.2749491,15.101066 16.7219701,15.445735 17.2465644,15.5870043 C17.7711586,15.7282735 18.330249,15.6545427 18.8005719,15.3820674 L18.8245421,15.3700501 C18.8332864,15.3649894 18.841091,15.35832 18.8485122,15.3540272 C19.3186491,15.0817371 19.6615478,14.6332196 19.801674,14.1072748 C19.9418002,13.5813299 19.8676586,13.0211041 19.5955812,12.5500045 L14.2782074,3.36883299 L14.2742124,3.36082149 C13.9178682,2.76012191 13.2809893,2.38270541 12.5843182,2.35938482 L12.5843182,2.35938482 Z M43.0104032,10.5511369 C42.6580579,10.5495447 42.3112757,10.6392326 42.0036577,10.8115104 L41.9956677,10.8155097 L41.9117723,10.8635787 L32.8151079,16.0990896 C32.343205,16.3707199 31.9986767,16.8196718 31.8577277,17.3466436 C31.7167787,17.8736154 31.7910249,18.435179 32.0640439,18.9071245 C32.0667924,18.9118724 32.0703464,18.9172754 32.0760225,18.9271532 C32.0819671,18.937472 32.0855467,18.9428883 32.0880012,18.947182 C32.3589042,19.42035 32.8066529,19.765802 33.3322122,19.9071293 C33.8577716,20.0484565 34.4178301,19.9740123 34.8885114,19.7002624 L44.0411188,14.3686135 L44.0491088,14.3646077 C44.8389428,13.8930045 45.2180326,12.9510462 44.9758413,12.0618728 C44.73365,11.1726994 43.9296666,10.5547167 43.0104032,10.5511369 L43.0104032,10.5511369 Z M2.01349092,15.9508834 C1.01406329,16.0030942 0.199037279,16.7726708 0.0871060426,17.7698448 C-0.0248251936,18.7670187 0.599204062,19.6989956 1.56205347,19.9726531 L1.57403853,19.9766589 L1.70587425,20.0127106 L11.7893089,22.7486356 C12.8670284,23.0418345 13.9801171,22.4142641 14.2901925,21.3386128 C14.311018,21.2660443 14.3180853,21.2359469 14.3141626,21.2504863 C14.4555061,20.7240379 14.3820086,20.162827 14.1099046,19.6908158 C13.8378006,19.2188045 13.3894801,18.8748325 12.8639697,18.7348774 L2.63271927,16.0149754 L2.62073421,16.0109696 C2.42245401,15.9606134 2.21776295,15.9403594 2.01349092,15.9508834 L2.01349092,15.9508834 Z M34.9963898,24.7595205 C34.0691287,24.7737073 33.2673837,25.4115645 33.0428242,26.3137502 C33.0493952,26.2873744 33.046979,26.2959059 33.0348341,26.3417904 C32.8864387,26.9022914 32.9816058,27.4995847 33.2967796,27.9858278 C33.6119534,28.472071 34.1176768,28.8018185 34.6887731,28.8934511 L36.8620649,29.241951 L36.8700549,29.241951 L36.9219902,29.2499625 C38.0299302,29.432676 39.0776692,28.6858025 39.2695464,27.5765234 C39.4614236,26.4672442 38.7257131,25.4102207 37.621119,25.2081641 L37.5691837,25.2001526 L35.403882,24.7955722 C35.2695938,24.7699332 35.1330807,24.7578556 34.9963898,24.7595205 L34.9963898,24.7595205 Z M13.3833226,27.6076064 C13.0584846,27.6235561 12.7421206,27.7169348 12.4604726,27.8799971 L3.31187296,33.211646 L3.29988789,33.2156518 C2.66679925,33.5819735 2.27673014,34.2591449 2.27663503,34.9920485 C2.27653991,35.7249521 2.66643324,36.4022252 3.29942678,36.7687122 C3.93242032,37.1351991 4.71233229,37.1352132 5.34533898,36.7687491 L5.35732405,36.7647434 L5.76881128,36.5243986 L14.5338888,31.4811634 C15.0064684,31.2102063 15.3518444,30.7615527 15.4935586,30.2345242 C15.6352729,29.7074957 15.5616354,29.1455667 15.2889479,28.673135 C15.2865189,28.6689344 15.2788574,28.6633353 15.2729678,28.6531063 C15.2671038,28.6429233 15.2632711,28.6370674 15.2609827,28.6330775 C14.8772389,27.9643892 14.1517396,27.5681628 13.3833226,27.6076064 L13.3833226,27.6076064 Z M20.5344113,33.1115024 C19.6027436,33.146489 18.8125293,33.8086905 18.6128059,34.7218125 L18.4090598,35.6591573 L18.3850897,35.7673124 C18.184626,36.8373909 18.8529369,37.8780597 19.9074463,38.1378694 C20.9619557,38.3976791 22.035173,37.7860876 22.3521462,36.7447146 L22.3801113,36.6405652 L22.6357927,35.7152377 C22.7811334,35.1827295 22.7062461,34.6139577 22.4280615,34.1375128 C22.149877,33.6610678 21.6918865,33.3171832 21.1576347,33.1836058 C21.1915036,33.1920377 21.1841617,33.1910482 21.1416546,33.1796 C20.9437817,33.1265465 20.7390844,33.1035913 20.5344113,33.1115024 L20.5344113,33.1115024 Z" id="path4842-2-0"></path>
                            <path d="M31.1380426,19.3797661 C30.2490333,17.8329177 28.8896636,16.56594 27.2070346,15.7999424 C22.863399,13.8225591 17.6807924,15.7632053 15.7037452,20.1075841 C13.7267025,24.4519602 15.6670134,29.6354584 20.0106493,31.6128423 C20.6767227,31.9160646 21.4539394,31.8408468 22.0495294,31.4155226 C22.6451193,30.9901984 22.9685983,30.2793847 22.8981148,29.5508381 C22.8276313,28.8222915 22.3738936,28.1866957 21.7078202,27.8834733 C19.3789629,26.8232921 18.3724744,24.1342961 19.4324757,21.8050415 C20.492477,19.475787 23.1810128,18.4691276 25.5098701,19.5293087 C27.0964767,20.2515938 28.1326153,21.7980745 28.1955359,23.5404652 C28.2064006,24.2827054 28.617874,24.9609945 29.27108,25.3134347 C29.9242861,25.665875 30.7170115,25.6373168 31.3431728,25.2387869 C31.9693342,24.8402569 32.3309502,24.134117 32.2883953,23.3930185 C32.236492,21.9558104 31.8294971,20.5828694 31.1380426,19.3797661 L31.1380426,19.3797661 Z" id="path4824-6-2-0"></path>
                        </g>
                    </g>
                </g>
            </g>
        </g>
    </g>
</svg>